<?xml version="1.0" encoding="UTF-8"?>
<!DOCTYPE svg PUBLIC "-//W3C//DTD SVG 1.1//EN" "http://www.w3.org/Graphics/SVG/1.1/DTD/svg11.dtd">
<!-- Creator: CorelDRAW 2020 (64-Bit) -->
<svg xmlns="http://www.w3.org/2000/svg" xml:space="preserve" width="7.88141in" height="3.93707in" version="1.1" style="shape-rendering:geometricPrecision; text-rendering:geometricPrecision; image-rendering:optimizeQuality; fill-rule:evenodd; clip-rule:evenodd"
viewBox="0 0 5973.11 2983.8"
 xmlns:xlink="http://www.w3.org/1999/xlink"
 xmlns:xodm="http://www.corel.com/coreldraw/odm/2003">
 <defs>
  <style type="text/css">
   <![CDATA[
    .fil2 {fill:#606062;fill-rule:nonzero}
    .fil0 {fill:#39B7EA;fill-rule:nonzero}
    .fil1 {fill:#F3B232;fill-rule:nonzero}
   ]]>
  </style>
 </defs>
 <g id="Layer_x0020_1">
  <metadata id="CorelCorpID_0Corel-Layer"/>
  <g id="_1924676812176">
   <g>
    <polygon class="fil0" points="1024.14,858.93 1024.14,2684.26 -0,1884.11 0.43,1353.58 604.24,1825.33 604.25,1186.98 "/>
    <polygon class="fil1" points="1023.91,1825.33 1023.91,0 2048.89,800.81 2047.62,1330.68 1443.8,858.93 1443.8,1500.39 "/>
    <path class="fil2" d="M1995.35 1535.73l128.21 0 0 128.21 -128.21 0 0 -128.21zm0 266.87l128.21 0 0 675.74 -128.21 0 0 -675.74z"/>
    <path id="1" class="fil2" d="M2295.56 1802.61l128.21 0 0 675.74 -128.21 0 0 -675.74zm349.53 236.21c0,-41.11 -9.55,-72.44 -28.66,-93.99 -19.11,-21.55 -46.89,-32.22 -83.33,-32.22 -35.55,0 -62.66,10.22 -81.33,30.66 -18.67,20.44 -28,49.77 -28,88.44l-13.78 -113.33c18.22,-41.55 42.44,-73.1 72.66,-94.66 30.22,-21.33 64,-32.22 101.77,-32.22 60.44,0 106.88,20 139.77,59.55 32.67,39.78 49.11,96.22 49.11,169.55l0 457.75 -128.21 0 0 -439.53z"/>
    <path id="2" class="fil2" d="M3121.73 2481.68c-54.89,0 -94.88,-15.11 -120.22,-45.33 -25.33,-30.22 -38,-74.66 -38,-133.77l0 -696.62 128.21 0 0 697.29c0,17.78 3.56,31.56 11.11,41.55 7.33,10 18.22,15.11 32.44,15.11l56.66 0 0 121.77 -70.22 0zm-227.99 -679.07l298.21 0 0 118.44 -298.21 0 0 -118.44z"/>
    <path id="3" class="fil2" d="M3338.6 1802.61l128.21 0 0 675.74 -128.21 0 0 -675.74zm340.43 135.99c-7.33,-7.33 -16.44,-12.89 -27.11,-16.44 -10.67,-3.78 -23.11,-5.55 -37.33,-5.55 -46.44,0 -82.66,11.78 -108.44,35.78 -25.78,23.77 -38.89,56.89 -39.33,98.88l-13.78 -130.88c21.78,-40.67 49.33,-72.44 83.11,-94.88 33.55,-22.66 70.88,-34 111.55,-34 15.55,0 29.55,2.22 42,6.89 12.45,4.45 23.33,11.11 32.89,19.78l-43.55 120.44z"/>
    <path id="4" class="fil2" d="M4162.11 2016.82c0,-35.55 -9.56,-63.33 -28.66,-83.11 -19.11,-19.78 -46,-29.55 -80.66,-29.55 -24.89,0 -46.89,5.78 -66.22,17.33 -19.33,11.33 -34,27.78 -44,49.11l-108.66 -33.33c12.67,-46.44 38,-82.22 76.22,-107.55 38.22,-25.56 85.77,-38.22 142.66,-38.22 48.89,0 90.89,8.89 125.77,26.44 35.11,17.55 61.55,42.89 79.77,76.22 18.22,33.11 27.33,73.1 27.33,119.99l0 464.19 -123.55 0 0 -461.53zm-143.99 471.3c-69.33,0 -121.33,-16.44 -155.77,-49.55 -34.67,-32.89 -51.77,-82.88 -51.77,-149.77 0,-71.55 18,-125.11 54.22,-160.44 36.22,-35.33 90.89,-52.88 163.77,-52.88l139.32 0 9.11 108.66 -147.77 0c-32.44,0 -56.89,8.66 -72.88,26 -16,17.33 -24,43.55 -24,78.66 0,30.44 8.89,53.11 26.89,67.77 18,14.89 45.33,22.22 81.77,22.22 40.67,0 71.11,-7.11 91.11,-21.11 20,-14.22 30,-35.55 30,-64.22l13.56 78.66c-6,26.22 -15.78,47.78 -29.55,64.88 -13.78,17.11 -31.11,30 -52.44,38.44 -21.33,8.44 -46.44,12.67 -75.55,12.67z"/>
    <path id="5" class="fil2" d="M4458.31 1802.61l128.21 0 0 675.74 -128.21 0 0 -675.74zm349.53 236.21c0,-41.11 -9.55,-72.44 -28.66,-93.99 -19.11,-21.55 -46.89,-32.22 -83.33,-32.22 -35.55,0 -62.66,10.22 -81.33,30.66 -18.67,20.44 -28,49.77 -28,88.44l-13.78 -113.33c18.22,-41.55 42.44,-73.1 72.66,-94.66 30.22,-21.33 64,-32.22 101.77,-32.22 60.44,0 106.88,20 139.77,59.55 32.67,39.78 49.11,96.22 49.11,169.55l0 457.75 -128.21 0 0 -439.53z"/>
    <path id="6" class="fil2" d="M5343.59 2488.12c-52.89,0 -98.22,-10.22 -135.77,-30.66 -37.55,-20.44 -66.22,-50.22 -85.77,-89.77 -19.78,-39.56 -29.78,-87.33 -29.78,-143.32l0 -155.55c0,-58.44 9.56,-108.44 28.66,-149.77 19.11,-41.11 46.89,-72.66 83.11,-94.22 36.22,-21.78 79.99,-32.66 131.1,-32.66 49.55,0 91.77,11.33 126.88,33.78 35.33,22.66 62,55.33 80.44,98.44 18.44,42.89 27.78,94.88 27.78,155.55l0 111.33 -386.2 0 0 -104.88 263.09 0 0 -36.44c0,-44.66 -10,-79.55 -30,-104.44 -20,-24.89 -47.33,-37.33 -82,-37.33 -38.22,0 -67.77,13.33 -88.88,40 -21.11,26.67 -31.55,64.44 -31.55,113.55l0 165.99c0,44.22 11.11,78.66 33.55,102.88 22.44,24.22 54.22,36.44 95.33,36.44 26.44,0 48.22,-6 65.55,-18.22 17.11,-12.22 29.11,-29.77 36,-52.66l0 0 117.33 37.78 0 0c-12.67,50.66 -37.33,89.1 -74.22,115.1 -37.11,26 -85.11,39.11 -144.66,39.11z"/>
    <path id="7" class="fil2" d="M5902.89 2481.68c-54.89,0 -94.88,-15.11 -120.22,-45.33 -25.33,-30.22 -38,-74.66 -38,-133.77l0 -696.62 128.21 0 0 697.29c0,17.78 3.56,31.56 11.11,41.55 7.33,10 18.22,15.11 32.44,15.11l56.66 0 0 121.77 -70.22 0zm-227.99 -679.07l298.21 0 0 118.44 -298.21 0 0 -118.44z"/>
   </g>
   <polygon class="fil1" points="4534.69,1334.77 4457.27,1334.77 4457.27,881.09 4534.69,881.09 "/>
   <polygon id="1" class="fil1" points="4584,881.09 4644.81,881.09 4751.52,1183.75 4743.11,1195.89 4743.11,881.09 4813.61,881.09 4813.61,1334.45 4752.16,1334.45 4646.73,1049.25 4654.82,1036.79 4654.82,1334.45 4584,1334.45 "/>
   <path id="2" class="fil1" d="M5095.72 1089.82l0 135.78c0,23.64 -4.47,44.09 -13.31,61.13 -8.84,17.04 -21.62,30.14 -38.55,39.19 -16.83,8.95 -36.95,13.52 -60.49,13.52 -23.96,0 -44.41,-4.37 -61.45,-13.1 -17.04,-8.73 -30.14,-21.41 -39.19,-38.13 -9.05,-16.61 -13.53,-36.42 -13.53,-59.53l0 -235.25c0,-24.39 4.37,-45.26 13.21,-62.83 8.84,-17.57 21.72,-30.99 38.55,-40.26 16.83,-9.26 37.06,-13.95 60.49,-13.95 23.11,0 42.92,4.47 59.53,13.42 16.51,8.95 29.07,21.94 37.81,38.98 8.84,17.14 13.21,37.49 13.21,61.24l0 34.93 -79.66 0 0 -34.93c0,-7.35 -1.17,-13.63 -3.73,-18.96 -2.45,-5.22 -6.07,-9.27 -10.76,-12.14 -4.68,-2.77 -10.12,-4.15 -16.4,-4.15 -6.81,0 -12.78,1.49 -17.89,4.68 -5.11,3.09 -8.95,7.56 -11.71,13.42 -2.66,5.75 -4.05,12.67 -4.05,20.56l0 235.25c0,6.39 1.38,12.14 4.26,17.04 2.77,4.79 6.92,8.63 12.25,11.18 5.43,2.56 11.82,3.94 19.06,3.94 7.45,0 13.95,-1.38 19.49,-4.05 5.54,-2.77 9.69,-6.71 12.67,-11.93 2.88,-5.22 4.37,-11.39 4.37,-18.74l0 -62.09 -38.13 0 0 -74.23 113.95 0z"/>
   <path id="3" class="fil1" d="M5145.03 881.09l77.31 0 0 453.68 -77.31 0 0 -453.68zm34.29 378.17l167.2 0 0 75.51 -167.2 0 0 -75.51zm0 -187.54l151.65 0 0 75.19 -151.65 0 0 -75.19zm0 -190.63l167.2 0 0 75.51 -167.2 0 0 -75.51z"/>
   <path id="4" class="fil1" d="M5495.4 1339.45c-22.9,0 -42.38,-4.58 -58.68,-13.52 -16.19,-9.05 -28.65,-22.26 -37.28,-39.51 -8.63,-17.25 -12.88,-38.13 -12.88,-62.41l0 -232.16c0,-24.28 4.26,-45.16 12.88,-62.41 8.63,-17.25 21.09,-30.35 37.28,-39.4 16.29,-9.05 35.78,-13.63 58.68,-13.63 22.9,0 42.49,4.58 58.79,13.63 16.4,9.05 28.75,22.26 37.38,39.62 8.52,17.36 12.78,38.23 12.78,62.52l0 36.53 -78.38 0 0 -36.53c0,-7.67 -1.07,-14.38 -3.41,-19.92 -2.24,-5.64 -5.75,-10.01 -10.44,-12.99 -4.69,-2.98 -10.23,-4.47 -16.72,-4.47 -6.18,0 -11.61,1.38 -16.19,4.37 -4.58,2.88 -8.09,7.14 -10.44,12.78 -2.45,5.65 -3.62,12.25 -3.62,19.92l0 232.16c0,7.67 1.17,14.27 3.62,19.81 2.34,5.54 5.86,9.69 10.44,12.67 4.58,2.88 10.01,4.37 16.19,4.37 6.71,0 12.25,-1.49 16.83,-4.37 4.58,-2.98 8.09,-7.13 10.33,-12.67 2.34,-5.54 3.41,-12.25 3.41,-20.13l0 -36.53 78.38 0 0 36.53c0,24.39 -4.26,45.15 -12.78,62.51 -8.63,17.47 -20.98,30.67 -37.38,39.73 -16.29,8.95 -35.89,13.52 -58.79,13.52z"/>
   <path id="5" class="fil1" d="M5757.28 1339.45c-24.39,0 -45.26,-4.26 -62.62,-12.67 -17.36,-8.41 -30.56,-20.56 -39.72,-36.42 -9.16,-15.98 -13.74,-35.14 -13.74,-57.61l0 -249.63c0,-22.47 4.58,-41.64 13.74,-57.72 9.16,-15.98 22.36,-28.12 39.72,-36.53 17.36,-8.31 38.23,-12.46 62.62,-12.46 24.28,0 45.16,4.15 62.52,12.46 17.36,8.41 30.67,20.56 39.83,36.53 9.05,16.08 13.63,35.25 13.63,57.72l0 249.63c0,22.47 -4.58,41.64 -13.63,57.61 -9.16,15.87 -22.47,28.01 -39.83,36.42 -17.36,8.41 -38.23,12.67 -62.52,12.67zm0 -77.42c7.88,0 14.7,-1.49 20.34,-4.68 5.75,-3.09 10.11,-7.56 12.99,-13.42 2.88,-5.75 4.37,-12.88 4.37,-21.19l0 -230.25c0,-8.09 -1.49,-15.02 -4.37,-20.87 -2.88,-5.86 -7.24,-10.33 -12.99,-13.42 -5.65,-3.09 -12.46,-4.69 -20.34,-4.69 -7.99,0 -14.69,1.6 -20.34,4.69 -5.65,3.09 -9.9,7.56 -12.78,13.42 -2.88,5.86 -4.37,12.78 -4.37,20.87l0 230.25c0,8.31 1.49,15.44 4.37,21.19 2.88,5.86 7.13,10.33 12.78,13.42 5.65,3.19 12.35,4.68 20.34,4.68z"/>
   <path class="fil0" d="M2387.2 2983.8c-20.39,0 -37.37,-3.41 -50.94,-10.23 -13.57,-6.75 -23.73,-16.98 -30.48,-30.55 -6.75,-13.57 -10.09,-30.62 -10.09,-51.15l0 -34.87c0,-20.25 3.41,-37.17 10.16,-50.6 6.82,-13.43 16.98,-23.52 30.48,-30.27 13.57,-6.75 30.48,-10.09 50.88,-10.09 11.55,0 22.13,1.25 31.59,3.76 9.54,2.51 18.03,6.26 25.54,11.2 7.45,5.01 13.99,11.28 19.56,18.86l0 0 -21.85 19.42 0 0c-7.17,-8.7 -15.31,-15.24 -24.36,-19.49 -9.05,-4.31 -19,-6.4 -29.86,-6.4 -21.09,0 -36.82,5.22 -47.19,15.8 -10.44,10.51 -15.59,26.45 -15.59,47.81l0 34.87c0,21.57 5.22,37.79 15.66,48.51 10.51,10.72 26.17,16.08 47.12,16.08 11.55,0 22.06,-2.02 31.53,-6.12 9.4,-4.04 17.96,-10.23 25.54,-18.51l0 0 19 18.72 0 0c-5.57,7.52 -12.11,13.71 -19.56,18.58 -7.52,4.87 -16.01,8.56 -25.54,11 -9.46,2.43 -20.04,3.69 -31.59,3.69z"/>
   <path id="1" class="fil0" d="M2590.91 2983.8c-18.37,0 -34.03,-3.62 -47.12,-10.79 -13.02,-7.24 -23.04,-17.75 -29.86,-31.53 -6.89,-13.78 -10.3,-30.42 -10.3,-49.83l0 -34.45c0,-19.21 3.41,-35.63 10.3,-49.28 6.82,-13.64 16.84,-24.08 29.86,-31.18 13.08,-7.17 28.74,-10.72 47.12,-10.72 18.3,0 34.03,3.55 47.12,10.72 13.02,7.1 22.97,17.54 29.86,31.18 6.82,13.64 10.3,30.07 10.3,49.28l0 35.08c0,19.28 -3.48,35.77 -10.3,49.41 -6.89,13.64 -16.84,24.08 -29.86,31.32 -13.08,7.17 -28.81,10.79 -47.12,10.79zm-0.21 -27.35c18.44,0 32.78,-5.57 42.94,-16.77 10.09,-11.2 15.17,-27.07 15.17,-47.39l0 -35.08c0,-20.25 -5.08,-35.98 -15.17,-47.12 -10.16,-11.14 -24.5,-16.7 -42.94,-16.7 -18.37,0 -32.57,5.57 -42.59,16.7 -10.09,11.14 -15.1,26.87 -15.1,47.12l0 35.08c0,20.32 5.01,36.19 15.1,47.39 10.02,11.2 24.22,16.77 42.59,16.77z"/>
   <path id="2" class="fil0" d="M2737.34 2769.1l29.37 0 0 211.64 -29.37 0 0 -211.64zm140.65 83.37c0,-18.72 -4.94,-33.27 -14.75,-43.64 -9.88,-10.3 -23.73,-15.45 -41.69,-15.45 -17.4,0 -30.9,4.59 -40.5,13.71 -9.6,9.19 -14.34,22.2 -14.34,39.05l-4.31 -40.78c7.52,-13.85 17.4,-23.87 29.79,-30.06 12.39,-6.19 26.73,-9.26 43.01,-9.26 22.97,0 40.71,7.52 53.31,22.55 12.6,15.03 18.86,36.26 18.86,63.68l0 128.48 -29.37 0 0 -128.27z"/>
   <path id="3" class="fil0" d="M3057.28 2983.8c-19.56,0 -36.33,-3.69 -50.18,-11.14 -13.85,-7.38 -24.43,-18.17 -31.67,-32.43 -7.31,-14.2 -10.93,-31.25 -10.93,-51.23l0 -23.87c0,-20.95 3.48,-38.84 10.51,-53.66 6.96,-14.83 17.12,-26.1 30.48,-33.82 13.29,-7.72 29.37,-11.62 48.09,-11.62 17.68,0 32.78,3.83 45.31,11.42 12.46,7.58 21.99,18.72 28.61,33.34 6.61,14.61 9.88,32.22 9.88,52.68l0 24.29 -152.91 0 0 -26.52 125.62 0 0 -2.02c0,-20.95 -4.94,-37.17 -14.83,-48.65 -9.81,-11.48 -23.73,-17.19 -41.69,-17.19 -19.7,0 -34.94,6.06 -45.65,18.1 -10.72,12.11 -16.15,29.23 -16.15,51.43l0 26.87c0,21.23 5.71,37.65 17.19,49.27 11.41,11.62 27.49,17.4 48.3,17.4 9.74,0 19.49,-2.02 29.02,-6.12 9.6,-4.04 18.17,-9.81 25.61,-17.33l0 0 19.97 19.21 0 0c-10.3,10.02 -21.99,17.82 -35.08,23.32 -13.01,5.5 -26.24,8.28 -39.53,8.28z"/>
   <path id="4" class="fil0" d="M3279.92 2983.8c-20.39,0 -37.37,-3.41 -50.94,-10.23 -13.57,-6.75 -23.73,-16.98 -30.48,-30.55 -6.75,-13.57 -10.09,-30.62 -10.09,-51.15l0 -34.87c0,-20.25 3.41,-37.17 10.16,-50.6 6.82,-13.43 16.98,-23.52 30.48,-30.27 13.57,-6.75 30.48,-10.09 50.88,-10.09 11.55,0 22.13,1.25 31.59,3.76 9.54,2.51 18.03,6.26 25.54,11.2 7.45,5.01 13.99,11.28 19.56,18.86l0 0 -21.85 19.42 0 0c-7.17,-8.7 -15.31,-15.24 -24.36,-19.49 -9.05,-4.31 -19,-6.4 -29.86,-6.4 -21.09,0 -36.82,5.22 -47.19,15.8 -10.44,10.51 -15.59,26.45 -15.59,47.81l0 34.87c0,21.57 5.22,37.79 15.66,48.51 10.51,10.72 26.17,16.08 47.12,16.08 11.55,0 22.06,-2.02 31.53,-6.12 9.4,-4.04 17.96,-10.23 25.54,-18.51l0 0 19 18.72 0 0c-5.57,7.52 -12.11,13.71 -19.56,18.58 -7.52,4.87 -16.01,8.56 -25.54,11 -9.46,2.43 -20.04,3.69 -31.59,3.69z"/>
   <path id="5" class="fil0" d="M3457.53 2981.79c-17.12,0 -29.72,-4.73 -37.65,-14.2 -7.93,-9.47 -11.9,-23.39 -11.9,-41.9l0 -218.19 29.37 0 0 218.6c0,9.12 2.02,16.08 6.12,21.02 4.04,4.87 10.09,7.31 18.1,7.31l19.97 0 0 27.35 -24.01 0zm-71.41 -212.69l95.42 0 0 25.26 -95.42 0 0 -25.26z"/>
   <path id="6" class="fil0" d="M3668.34 2846.56c0,-17.12 -4.59,-30.41 -13.78,-39.81 -9.19,-9.47 -22.2,-14.2 -39.04,-14.2 -10.02,0 -19.9,1.6 -29.58,4.87 -9.6,3.27 -18.16,7.87 -25.68,13.85l-21.36 -14.69c8,-9.6 18.58,-17.12 31.67,-22.48 13.15,-5.36 27.7,-8.07 43.77,-8.07 17.54,0 32.5,3.06 45.03,9.26 12.53,6.19 22.06,15.17 28.53,26.93 6.54,11.76 9.81,25.96 9.81,42.52l0 135.99 -29.37 0 0 -134.18zm-62.01 137.24c-24.71,0 -43.85,-5.7 -57.49,-17.12 -13.57,-11.41 -20.39,-27.56 -20.39,-48.3 0,-20.04 6.26,-35.49 18.65,-46.42 12.46,-10.93 30,-16.43 52.76,-16.43l70.29 0 2.85 27.35 -72.93 0c-13.64,0 -24.15,3.06 -31.53,9.26 -7.38,6.19 -11.14,14.89 -11.14,26.24 0,11.9 4.66,21.23 13.99,27.77 9.33,6.61 22.48,9.95 39.46,9.95 18.23,0 32.36,-1.88 42.38,-5.57 10.09,-3.62 15.1,-8.84 15.1,-15.45l4.31 27.7c-4.25,4.39 -9.67,8.14 -16.22,11.34 -6.61,3.2 -14.13,5.57 -22.69,7.24 -8.49,1.6 -17.61,2.43 -27.42,2.43z"/>
   <path id="7" class="fil0" d="M3760.91 2769.1l29.37 0 0 211.64 -29.37 0 0 -211.64zm140.65 83.37c0,-18.72 -4.94,-33.27 -14.75,-43.64 -9.88,-10.3 -23.73,-15.45 -41.69,-15.45 -17.4,0 -30.9,4.59 -40.5,13.71 -9.6,9.19 -14.34,22.2 -14.34,39.05l-4.31 -40.78c7.52,-13.85 17.4,-23.87 29.79,-30.06 12.39,-6.19 26.73,-9.26 43.01,-9.26 22.97,0 40.71,7.52 53.31,22.55 12.6,15.03 18.86,36.26 18.86,63.68l0 128.48 -29.37 0 0 -128.27z"/>
   <path id="8" class="fil0" d="M4126.71 2684.26l29.37 0 0 296.48 -29.37 0 0 -296.48zm-65.42 299.54c-15.38,0 -28.61,-3.34 -39.6,-10.09 -11,-6.75 -19.35,-16.49 -25.05,-29.23 -5.71,-12.81 -8.56,-28.19 -8.56,-46.14l0 -46.08c0,-18.16 2.78,-33.75 8.35,-46.7 5.57,-12.87 13.71,-22.69 24.36,-29.44 10.65,-6.75 23.45,-10.09 38.42,-10.09 16.22,0 30.34,2.99 42.52,9.05 12.18,6.05 21.92,15.94 29.3,29.72l-4.31 40.78c0,-9.26 -2.16,-18.02 -6.4,-26.31 -4.31,-8.28 -10.51,-15.03 -18.65,-20.18 -8.14,-5.22 -17.75,-7.8 -28.74,-7.8 -17.68,0 -31.39,5.36 -40.99,16.01 -9.67,10.72 -14.48,25.75 -14.48,45.17l0 45.87c0,19.07 4.8,33.82 14.48,44.4 9.6,10.51 23.32,15.8 40.99,15.8 10.85,0 20.39,-2.64 28.53,-8 8.14,-5.29 14.41,-12.18 18.72,-20.67 4.39,-8.49 6.54,-17.33 6.54,-26.59l2.85 44.19c-5.29,12.95 -13.71,22.2 -25.26,27.84 -11.55,5.64 -25.89,8.49 -43.01,8.49z"/>
   <path id="9" class="fil0" d="M4300.42 2983.8c-18.37,0 -34.03,-3.62 -47.12,-10.79 -13.02,-7.24 -23.04,-17.75 -29.86,-31.53 -6.89,-13.78 -10.3,-30.42 -10.3,-49.83l0 -34.45c0,-19.21 3.41,-35.63 10.3,-49.28 6.82,-13.64 16.84,-24.08 29.86,-31.18 13.08,-7.17 28.74,-10.72 47.12,-10.72 18.3,0 34.03,3.55 47.12,10.72 13.02,7.1 22.97,17.54 29.86,31.18 6.82,13.64 10.3,30.07 10.3,49.28l0 35.08c0,19.28 -3.48,35.77 -10.3,49.41 -6.89,13.64 -16.84,24.08 -29.86,31.32 -13.08,7.17 -28.81,10.79 -47.12,10.79zm-0.21 -27.35c18.44,0 32.78,-5.57 42.94,-16.77 10.09,-11.2 15.17,-27.07 15.17,-47.39l0 -35.08c0,-20.25 -5.08,-35.98 -15.17,-47.12 -10.16,-11.14 -24.5,-16.7 -42.94,-16.7 -18.37,0 -32.57,5.57 -42.59,16.7 -10.09,11.14 -15.1,26.87 -15.1,47.12l0 35.08c0,20.32 5.01,36.19 15.1,47.39 10.02,11.2 24.22,16.77 42.59,16.77z"/>
   <path id="10" class="fil0" d="M4688.63 2846.56c0,-17.12 -4.59,-30.41 -13.78,-39.81 -9.19,-9.47 -22.2,-14.2 -39.04,-14.2 -10.02,0 -19.9,1.6 -29.58,4.87 -9.6,3.27 -18.16,7.87 -25.68,13.85l-21.36 -14.69c8,-9.6 18.58,-17.12 31.67,-22.48 13.15,-5.36 27.7,-8.07 43.77,-8.07 17.54,0 32.5,3.06 45.03,9.26 12.53,6.19 22.06,15.17 28.53,26.93 6.54,11.76 9.81,25.96 9.81,42.52l0 135.99 -29.37 0 0 -134.18zm-62.01 137.24c-24.71,0 -43.85,-5.7 -57.49,-17.12 -13.57,-11.41 -20.39,-27.56 -20.39,-48.3 0,-20.04 6.26,-35.49 18.65,-46.42 12.46,-10.93 30,-16.43 52.76,-16.43l70.29 0 2.85 27.35 -72.93 0c-13.64,0 -24.15,3.06 -31.53,9.26 -7.38,6.19 -11.14,14.89 -11.14,26.24 0,11.9 4.66,21.23 13.99,27.77 9.33,6.61 22.48,9.95 39.46,9.95 18.23,0 32.36,-1.88 42.38,-5.57 10.09,-3.62 15.1,-8.84 15.1,-15.45l4.31 27.7c-4.25,4.39 -9.67,8.14 -16.22,11.34 -6.61,3.2 -14.13,5.57 -22.69,7.24 -8.49,1.6 -17.61,2.43 -27.42,2.43z"/>
   <path id="11" class="fil0" d="M4948.37 2981.79c-17.12,0 -29.72,-4.73 -37.65,-14.2 -7.93,-9.47 -11.9,-23.39 -11.9,-41.9l0 -218.19 29.37 0 0 218.6c0,9.12 2.02,16.08 6.12,21.02 4.04,4.87 10.09,7.31 18.1,7.31l19.97 0 0 27.35 -24.01 0zm-71.41 -212.69l95.42 0 0 25.26 -95.42 0 0 -25.26z"/>
   <path id="12" class="fil0" d="M5110.67 2983.8c-18.37,0 -34.03,-3.62 -47.12,-10.79 -13.02,-7.24 -23.04,-17.75 -29.86,-31.53 -6.89,-13.78 -10.3,-30.42 -10.3,-49.83l0 -34.45c0,-19.21 3.41,-35.63 10.3,-49.28 6.82,-13.64 16.84,-24.08 29.86,-31.18 13.08,-7.17 28.74,-10.72 47.12,-10.72 18.3,0 34.03,3.55 47.12,10.72 13.02,7.1 22.97,17.54 29.86,31.18 6.82,13.64 10.3,30.07 10.3,49.28l0 35.08c0,19.28 -3.48,35.77 -10.3,49.41 -6.89,13.64 -16.84,24.08 -29.86,31.32 -13.08,7.17 -28.81,10.79 -47.12,10.79zm-0.21 -27.35c18.44,0 32.78,-5.57 42.94,-16.77 10.09,-11.2 15.17,-27.07 15.17,-47.39l0 -35.08c0,-20.25 -5.08,-35.98 -15.17,-47.12 -10.16,-11.14 -24.5,-16.7 -42.94,-16.7 -18.37,0 -32.57,5.57 -42.59,16.7 -10.09,11.14 -15.1,26.87 -15.1,47.12l0 35.08c0,20.32 5.01,36.19 15.1,47.39 10.02,11.2 24.22,16.77 42.59,16.77z"/>
   <path id="13" class="fil0" d="M5389.62 2684.26l29.37 0 0 296.48 -29.37 0 0 -296.48zm-65.42 299.54c-15.38,0 -28.61,-3.34 -39.6,-10.09 -11,-6.75 -19.35,-16.49 -25.05,-29.23 -5.71,-12.81 -8.56,-28.19 -8.56,-46.14l0 -46.08c0,-18.16 2.78,-33.75 8.35,-46.7 5.57,-12.87 13.71,-22.69 24.36,-29.44 10.65,-6.75 23.45,-10.09 38.42,-10.09 16.22,0 30.34,2.99 42.52,9.05 12.18,6.05 21.92,15.94 29.3,29.72l-4.31 40.78c0,-9.26 -2.16,-18.02 -6.4,-26.31 -4.31,-8.28 -10.51,-15.03 -18.65,-20.18 -8.14,-5.22 -17.75,-7.8 -28.74,-7.8 -17.68,0 -31.39,5.36 -40.99,16.01 -9.67,10.72 -14.48,25.75 -14.48,45.17l0 45.87c0,19.07 4.8,33.82 14.48,44.4 9.6,10.51 23.32,15.8 40.99,15.8 10.85,0 20.39,-2.64 28.53,-8 8.14,-5.29 14.41,-12.18 18.72,-20.67 4.39,-8.49 6.54,-17.33 6.54,-26.59l2.85 44.19c-5.29,12.95 -13.71,22.2 -25.26,27.84 -11.55,5.64 -25.89,8.49 -43.01,8.49z"/>
   <path id="14" class="fil0" d="M5563.33 2983.8c-18.37,0 -34.03,-3.62 -47.12,-10.79 -13.02,-7.24 -23.04,-17.75 -29.86,-31.53 -6.89,-13.78 -10.3,-30.42 -10.3,-49.83l0 -34.45c0,-19.21 3.41,-35.63 10.3,-49.28 6.82,-13.64 16.84,-24.08 29.86,-31.18 13.08,-7.17 28.74,-10.72 47.12,-10.72 18.3,0 34.03,3.55 47.12,10.72 13.02,7.1 22.97,17.54 29.86,31.18 6.82,13.64 10.3,30.07 10.3,49.28l0 35.08c0,19.28 -3.48,35.77 -10.3,49.41 -6.89,13.64 -16.84,24.08 -29.86,31.32 -13.08,7.17 -28.81,10.79 -47.12,10.79zm-0.21 -27.35c18.44,0 32.78,-5.57 42.94,-16.77 10.09,-11.2 15.17,-27.07 15.17,-47.39l0 -35.08c0,-20.25 -5.08,-35.98 -15.17,-47.12 -10.16,-11.14 -24.5,-16.7 -42.94,-16.7 -18.37,0 -32.57,5.57 -42.59,16.7 -10.09,11.14 -15.1,26.87 -15.1,47.12l0 35.08c0,20.32 5.01,36.19 15.1,47.39 10.02,11.2 24.22,16.77 42.59,16.77z"/>
   <path id="15" class="fil0" d="M5782.56 2983.8c-11.41,0 -22.55,-1.11 -33.27,-3.34 -10.72,-2.3 -20.74,-5.57 -30.06,-9.88 -9.33,-4.39 -17.54,-9.6 -24.78,-15.73l0 0 16.91 -20.6 0 0c11.55,7.72 23.52,13.78 35.91,18.02 12.39,4.31 24.08,6.47 35.29,6.47 20.25,0 35.91,-3.48 46.98,-10.44 11.07,-6.89 16.63,-16.7 16.63,-29.37 0,-9.26 -2.71,-16.15 -8.07,-20.81 -5.36,-4.59 -12.11,-7.72 -20.32,-9.33 -8.15,-1.67 -19.49,-2.99 -34.04,-4.11 -1.32,-0.14 -2.71,-0.21 -4.17,-0.28 -1.39,-0.07 -2.78,-0.21 -4.18,-0.35 -0.55,0 -1.11,0 -1.6,-0.07 -0.56,-0.07 -1.11,-0.14 -1.67,-0.14 -13.99,-1.32 -25.68,-3.34 -35.08,-6.05 -9.32,-2.78 -17.19,-7.87 -23.52,-15.31 -6.33,-7.52 -9.46,-18.3 -9.46,-32.43 0,-13.57 3.27,-25.13 9.88,-34.66 6.61,-9.54 16.22,-16.77 28.95,-21.86 12.67,-5.01 27.98,-7.52 45.8,-7.52 9.18,0 18.44,0.91 27.7,2.78 9.26,1.81 18.1,4.45 26.59,7.93 8.49,3.48 16.29,7.66 23.39,12.53l0 0 -16.91 20.18 0 0c-10.09,-5.85 -20.53,-10.37 -31.46,-13.57 -10.85,-3.2 -21.02,-4.8 -30.55,-4.8 -17.82,0 -31.6,3.34 -41.41,10.02 -9.74,6.68 -14.69,16.01 -14.69,28.12 0,8.42 2.65,14.75 8.01,18.86 5.29,4.17 11.97,6.89 20.04,8.28 8.07,1.32 19.21,2.43 33.33,3.27 0.56,0 1.12,0 1.74,0.07 0.62,0.07 1.18,0.14 1.74,0.14 0.42,0 0.84,0 1.25,0 0.35,0 0.76,0.07 1.18,0.21 14.82,0.76 27.42,2.64 37.86,5.5 10.37,2.85 19.07,8.49 26.17,16.91 7.1,8.42 10.58,20.6 10.58,36.47 0,13.78 -3.48,25.47 -10.58,35.08 -7.1,9.67 -17.4,17.05 -30.97,22.13 -13.64,5.08 -30,7.65 -49.14,7.65z"/>
  </g>
 </g>
</svg>
